<svg width="30" height="30" viewBox="0 0 30 30" fill="none" xmlns="http://www.w3.org/2000/svg">
<path d="M14.6573 0.010422C23.2105 -0.182231 30.2194 6.8036 29.993 15.4339C29.7865 23.3014 23.3311 30.0851 14.8212 29.9991C6.71308 29.9176 0.044193 23.3474 0.00341797 14.9991C0.0528685 6.66301 6.68358 0.190925 14.6573 0.010422Z" fill="#323642"/>
<path fill-rule="evenodd" clip-rule="evenodd" d="M25.5702 16.8344C26.3649 16.2451 26.8473 15.4815 26.751 14.4522C26.6564 13.443 26.1463 12.6923 25.2224 12.2819C24.2221 11.841 23.2652 11.9651 22.4071 12.6663C22.3091 12.7461 22.2493 12.7496 22.1486 12.6836C20.5575 11.6345 18.8042 11.047 16.9138 10.8552C16.7943 10.8429 16.6749 10.8304 16.5498 10.8173L16.5497 10.8173L16.2475 10.7858C16.4992 10.0027 16.7467 9.23209 16.9936 8.46344L16.9938 8.46293L17.463 7.00213C17.496 7.00744 17.5268 7.01195 17.5561 7.01623C17.613 7.02455 17.6642 7.03204 17.7146 7.04292C17.9851 7.10108 18.2555 7.15978 18.526 7.2185L18.526 7.2185L18.526 7.21851L18.5261 7.21851L18.5261 7.21852C19.2202 7.36918 19.9146 7.51992 20.6113 7.66166C20.81 7.70245 20.9089 7.77188 20.9653 7.98188C21.2307 8.97465 22.2189 9.60728 23.2166 9.44674C24.5882 9.22545 25.3325 7.74758 24.668 6.56389C24.1362 5.61799 22.4844 5.05218 21.4199 6.29053C21.3158 6.41203 21.2273 6.44066 21.072 6.40682C20.1586 6.20638 19.2443 6.01194 18.3297 5.81743C17.989 5.74499 17.6484 5.67253 17.3077 5.59976C16.7863 5.48781 16.5425 5.631 16.382 6.14127C16.2312 6.61993 16.0801 7.09848 15.9291 7.57704L15.9291 7.57716L15.929 7.57728C15.6266 8.53544 15.3242 9.4936 15.0234 10.4525C14.9844 10.5775 14.9514 10.6677 14.784 10.6669C13.9372 10.6608 13.1026 10.7806 12.275 10.9559C10.7906 11.27 9.41033 11.8306 8.15498 12.6871C8.04046 12.7652 7.97019 12.734 7.86522 12.6854C7.74868 12.6315 7.63292 12.574 7.51703 12.5164L7.51702 12.5164C7.20586 12.3618 6.89385 12.2068 6.56389 12.1196C4.99882 11.7048 3.14052 12.977 3.46065 15.0675C3.58644 15.8893 4.07487 16.4838 4.7481 16.935C4.85914 17.0088 4.88343 17.0756 4.86348 17.1971C4.67522 18.3278 4.79234 19.4248 5.24867 20.48C5.8976 21.9804 7.01415 23.0652 8.37013 23.9208C9.91785 24.898 11.6347 25.3926 13.4349 25.6191C15.0095 25.8161 16.5755 25.7415 18.1223 25.3926C20.3484 24.8902 22.3308 23.9347 23.8568 22.1844C25.0671 20.7959 25.6032 19.1818 25.3542 17.3403C25.3204 17.0947 25.3794 16.9758 25.5702 16.8344ZM20.2756 16.9107C20.279 17.7421 19.5329 18.4858 18.694 18.4867C17.8213 18.4875 17.1073 17.7534 17.1064 16.8526C17.1055 16.029 17.8412 15.307 18.6853 15.3044C19.5546 15.3018 20.2721 16.0256 20.2756 16.9107ZM19.0688 21.5014C19.251 21.2905 19.2041 21.0397 19.0367 20.874C18.8042 20.6432 18.504 20.5789 18.2707 20.7126C18.2184 20.7426 18.1686 20.7766 18.1188 20.8106L18.1188 20.8107L18.1188 20.8107C18.0793 20.8377 18.0398 20.8647 17.9991 20.8896C16.3915 21.8668 14.7119 22.0186 12.9716 21.2949C12.7045 21.1837 12.4534 21.032 12.203 20.8809L12.203 20.8808C12.1192 20.8303 12.0356 20.7797 11.9514 20.7308C11.7015 20.585 11.3875 20.6362 11.148 20.8783C10.9901 21.0371 10.9702 21.3105 11.1281 21.5344C11.2174 21.6602 11.338 21.7739 11.4647 21.8624C12.5526 22.6261 13.7759 22.9446 15.1908 22.9611C15.2352 22.9578 15.2878 22.9543 15.3463 22.9505C15.4899 22.9409 15.6687 22.9291 15.8476 22.9125C16.7273 22.8318 17.5662 22.6 18.3253 22.1436C18.6021 21.9752 18.8554 21.7461 19.0688 21.5014ZM13.0922 16.9073C13.0957 17.7108 12.3401 18.4849 11.5515 18.4867C10.657 18.4884 9.91351 17.769 9.91091 16.8994C9.90917 16.0394 10.637 15.3053 11.4916 15.3053C12.3574 15.3044 13.0888 16.036 13.0922 16.9073Z" fill="white"/>
</svg>
