<svg width="10" height="15" viewBox="0 0 10 15" fill="none" xmlns="http://www.w3.org/2000/svg">
<path fill-rule="evenodd" clip-rule="evenodd" d="M4.60765 0.164998C4.82431 -0.0549992 5.17652 -0.0549992 5.39318 0.164998L9.8375 4.67775C10.0542 4.89775 10.0542 5.25539 9.8375 5.47538C9.62084 5.69538 9.26863 5.69538 9.05197 5.47538L5.5554 1.9261V14.4359C5.5554 14.7473 5.30763 15 4.99986 15C4.6932 15 4.44432 14.7473 4.44432 14.4359V1.9261L0.948863 5.47538C0.732202 5.69538 0.379989 5.69538 0.163329 5.47538C0.0544429 5.36482 0 5.22041 0 5.07713C0 4.93272 0.0544429 4.78832 0.163329 4.67775L4.60765 0.164998Z" fill="#4CB649"/>
</svg>
