<svg width="16" height="16" viewBox="0 0 16 16" fill="none" xmlns="http://www.w3.org/2000/svg">
<path d="M2.75 13V12.25H2H1C0.902132 12.25 0.837422 12.216 0.803184 12.1843C0.773785 12.1571 0.75 12.118 0.75 12.048V1.07C0.75 0.987277 0.784768 0.898352 0.846005 0.831709C0.905858 0.766573 0.963587 0.75 1 0.75H15C15.0364 0.75 15.0941 0.766573 15.154 0.831709C15.2152 0.898352 15.25 0.987277 15.25 1.07V12.048C15.25 12.118 15.2262 12.1571 15.1968 12.1843C15.1626 12.216 15.0979 12.25 15 12.25H8.28H8.09698L7.93453 12.3343L2.75 15.0249V13Z" stroke="#889099" stroke-width="1.5"/>
</svg>
